<mxfile host="65bd71144e">
    <diagram id="oVIlP2WVnz6kb_MlFQTz" name="Page-1">
        <mxGraphModel dx="2611" dy="1898" grid="0" gridSize="10" guides="1" tooltips="1" connect="1" arrows="0" fold="1" page="1" pageScale="1" pageWidth="850" pageHeight="1100" math="0" shadow="0">
            <root>
                <object label="" id="0">
                    <mxCell/>
                </object>
                <mxCell id="1" parent="0"/>
                <mxCell id="l_bYTn5K-WHywQLocLNn-294" style="edgeStyle=orthogonalEdgeStyle;rounded=0;orthogonalLoop=1;jettySize=auto;html=1;exitX=0.5;exitY=0;exitDx=0;exitDy=0;" parent="1" source="10" edge="1">
                    <mxGeometry relative="1" as="geometry">
                        <mxPoint x="500" y="-90" as="targetPoint"/>
                    </mxGeometry>
                </mxCell>
                <mxCell id="10" value="&lt;h4&gt;&lt;span style=&quot;font-weight: normal;&quot;&gt;Vehcile&lt;/span&gt;&lt;/h4&gt;" style="swimlane;whiteSpace=wrap;html=1;hachureGap=4;fontFamily=Architects Daughter;fontSource=https%3A%2F%2Ffonts.googleapis.com%2Fcss%3Ffamily%3DArchitects%2BDaughter;fontSize=20;fillColor=#dae8fc;strokeColor=#6c8ebf;" parent="1" vertex="1">
                    <mxGeometry x="340" width="320" height="350" as="geometry">
                        <mxRectangle x="340" width="100" height="90" as="alternateBounds"/>
                    </mxGeometry>
                </mxCell>
                <mxCell id="11" value="* cellNo : string" style="text;html=1;align=center;verticalAlign=middle;resizable=0;points=[];autosize=1;strokeColor=none;fillColor=none;" parent="10" vertex="1">
                    <mxGeometry y="25" width="100" height="30" as="geometry"/>
                </mxCell>
                <mxCell id="13" value="* plateNo : string" style="text;html=1;align=center;verticalAlign=middle;resizable=0;points=[];autosize=1;strokeColor=none;fillColor=none;" parent="10" vertex="1">
                    <mxGeometry y="55" width="110" height="30" as="geometry"/>
                </mxCell>
                <mxCell id="14" value="* parkingType : string" style="text;html=1;align=center;verticalAlign=middle;resizable=0;points=[];autosize=1;strokeColor=none;fillColor=none;" parent="10" vertex="1">
                    <mxGeometry x="-5" y="40" width="140" height="30" as="geometry"/>
                </mxCell>
                <mxCell id="15" value="* days : int" style="text;html=1;align=center;verticalAlign=middle;resizable=0;points=[];autosize=1;strokeColor=none;fillColor=none;" parent="10" vertex="1">
                    <mxGeometry y="70" width="80" height="30" as="geometry"/>
                </mxCell>
                <mxCell id="16" value="* hours : int" style="text;html=1;align=center;verticalAlign=middle;resizable=0;points=[];autosize=1;strokeColor=none;fillColor=none;" parent="10" vertex="1">
                    <mxGeometry y="85" width="80" height="30" as="geometry"/>
                </mxCell>
                <mxCell id="17" value="* parkTime : time_t&amp;nbsp;" style="text;html=1;align=center;verticalAlign=middle;resizable=0;points=[];autosize=1;strokeColor=none;fillColor=none;" parent="10" vertex="1">
                    <mxGeometry x="-5" y="100" width="130" height="30" as="geometry"/>
                </mxCell>
                <mxCell id="18" value="* unparkTime : time_t" style="text;html=1;align=center;verticalAlign=middle;resizable=0;points=[];autosize=1;strokeColor=none;fillColor=none;" parent="10" vertex="1">
                    <mxGeometry x="-5" y="115" width="140" height="30" as="geometry"/>
                </mxCell>
                <mxCell id="22" value="&amp;nbsp; &amp;nbsp;+ Vehcile ( string, string, int, int, string )&amp;nbsp;" style="text;html=1;align=center;verticalAlign=middle;resizable=0;points=[];autosize=1;strokeColor=none;fillColor=none;" parent="10" vertex="1">
                    <mxGeometry x="-10" y="175" width="240" height="30" as="geometry"/>
                </mxCell>
                <mxCell id="20" value="+ Vehicle()" style="text;html=1;align=center;verticalAlign=middle;resizable=0;points=[];autosize=1;strokeColor=none;fillColor=none;" parent="10" vertex="1">
                    <mxGeometry y="160" width="80" height="30" as="geometry"/>
                </mxCell>
                <mxCell id="24" value="&amp;nbsp; &amp;nbsp; + setUnparktime ( time_t ) : void" style="text;html=1;align=center;verticalAlign=middle;resizable=0;points=[];autosize=1;strokeColor=none;fillColor=none;" parent="10" vertex="1">
                    <mxGeometry x="-15" y="190" width="210" height="30" as="geometry"/>
                </mxCell>
                <mxCell id="25" value="+ parkVehicle &amp;lt;T&amp;gt; ( unordered_map&amp;lt;string, T&amp;gt;&amp;amp; ) : void&amp;nbsp;" style="text;html=1;align=center;verticalAlign=middle;resizable=0;points=[];autosize=1;strokeColor=none;fillColor=none;" parent="10" vertex="1">
                    <mxGeometry x="-5" y="205" width="320" height="30" as="geometry"/>
                </mxCell>
                <mxCell id="26" value="+ getPlateNo() : string" style="text;html=1;align=center;verticalAlign=middle;resizable=0;points=[];autosize=1;strokeColor=none;fillColor=none;" parent="10" vertex="1">
                    <mxGeometry y="220" width="140" height="30" as="geometry"/>
                </mxCell>
                <mxCell id="27" value="+ getDays() : int" style="text;html=1;align=center;verticalAlign=middle;resizable=0;points=[];autosize=1;strokeColor=none;fillColor=none;" parent="10" vertex="1">
                    <mxGeometry y="235" width="110" height="30" as="geometry"/>
                </mxCell>
                <mxCell id="28" value="+ getHours() : int" style="text;html=1;align=center;verticalAlign=middle;resizable=0;points=[];autosize=1;strokeColor=none;fillColor=none;" parent="10" vertex="1">
                    <mxGeometry y="250" width="110" height="30" as="geometry"/>
                </mxCell>
                <mxCell id="29" value="+ getParkingType() : string" style="text;html=1;align=center;verticalAlign=middle;resizable=0;points=[];autosize=1;strokeColor=none;fillColor=none;" parent="10" vertex="1">
                    <mxGeometry y="265" width="160" height="30" as="geometry"/>
                </mxCell>
                <mxCell id="30" value="+ getCellNo() : string" style="text;html=1;align=center;verticalAlign=middle;resizable=0;points=[];autosize=1;strokeColor=none;fillColor=none;" parent="10" vertex="1">
                    <mxGeometry y="280" width="130" height="30" as="geometry"/>
                </mxCell>
                <mxCell id="31" value="+ getParkTime() : time_t" style="text;html=1;align=center;verticalAlign=middle;resizable=0;points=[];autosize=1;strokeColor=none;fillColor=none;" parent="10" vertex="1">
                    <mxGeometry y="295" width="150" height="30" as="geometry"/>
                </mxCell>
                <mxCell id="32" value="+getUnparkTime() : time_t" style="text;html=1;align=center;verticalAlign=middle;resizable=0;points=[];autosize=1;strokeColor=none;fillColor=none;" parent="10" vertex="1">
                    <mxGeometry y="310" width="160" height="30" as="geometry"/>
                </mxCell>
                <mxCell id="23" value="" style="endArrow=none;html=1;" parent="1" edge="1">
                    <mxGeometry width="50" height="50" relative="1" as="geometry">
                        <mxPoint x="340" y="150" as="sourcePoint"/>
                        <mxPoint x="660" y="150" as="targetPoint"/>
                    </mxGeometry>
                </mxCell>
                <mxCell id="l_bYTn5K-WHywQLocLNn-293" style="edgeStyle=orthogonalEdgeStyle;rounded=0;orthogonalLoop=1;jettySize=auto;html=1;exitX=0.5;exitY=0;exitDx=0;exitDy=0;entryX=0.5;entryY=1;entryDx=0;entryDy=0;" parent="1" source="53" target="10" edge="1">
                    <mxGeometry relative="1" as="geometry"/>
                </mxCell>
                <mxCell id="53" value="&lt;h4 style=&quot;border-color: var(--border-color); font-family: &amp;quot;Architects Daughter&amp;quot;; font-size: 20px;&quot;&gt;&lt;span style=&quot;border-color: var(--border-color); font-weight: normal;&quot;&gt;BillCalculate&lt;/span&gt;&lt;/h4&gt;" style="swimlane;whiteSpace=wrap;html=1;fillColor=#f8cecc;strokeColor=#b85450;" parent="1" vertex="1">
                    <mxGeometry x="300" y="440" width="400" height="690" as="geometry">
                        <mxRectangle x="300" y="440" width="140" height="30" as="alternateBounds"/>
                    </mxGeometry>
                </mxCell>
                <mxCell id="54" value="+ RateConfig" style="text;html=1;align=center;verticalAlign=middle;resizable=0;points=[];autosize=1;strokeColor=none;fillColor=none;" parent="53" vertex="1">
                    <mxGeometry y="30" width="90" height="30" as="geometry"/>
                </mxCell>
                <mxCell id="55" value="&amp;nbsp; &amp;nbsp;- carHourlyRate : double" style="text;html=1;align=center;verticalAlign=middle;resizable=0;points=[];autosize=1;strokeColor=none;fillColor=none;" parent="53" vertex="1">
                    <mxGeometry x="5" y="50" width="160" height="30" as="geometry"/>
                </mxCell>
                <mxCell id="56" value="- carDailyRate : double" style="text;html=1;align=center;verticalAlign=middle;resizable=0;points=[];autosize=1;strokeColor=none;fillColor=none;" parent="53" vertex="1">
                    <mxGeometry x="10" y="70" width="150" height="30" as="geometry"/>
                </mxCell>
                <mxCell id="58" value="- busHourlyRate : double" style="text;html=1;align=center;verticalAlign=middle;resizable=0;points=[];autosize=1;strokeColor=none;fillColor=none;" parent="53" vertex="1">
                    <mxGeometry x="10" y="90" width="160" height="30" as="geometry"/>
                </mxCell>
                <mxCell id="59" value="&amp;nbsp;- busDailyRate : double" style="text;html=1;align=center;verticalAlign=middle;resizable=0;points=[];autosize=1;strokeColor=none;fillColor=none;" parent="53" vertex="1">
                    <mxGeometry x="10" y="110" width="150" height="30" as="geometry"/>
                </mxCell>
                <mxCell id="60" value="- bikeDailyRate : double" style="text;html=1;align=center;verticalAlign=middle;resizable=0;points=[];autosize=1;strokeColor=none;fillColor=none;" parent="53" vertex="1">
                    <mxGeometry x="15" y="150" width="150" height="30" as="geometry"/>
                </mxCell>
                <mxCell id="61" value="&amp;nbsp; - bikeHourlyRate : double" style="text;html=1;align=center;verticalAlign=middle;resizable=0;points=[];autosize=1;strokeColor=none;fillColor=none;" parent="53" vertex="1">
                    <mxGeometry x="5" y="130" width="170" height="30" as="geometry"/>
                </mxCell>
                <mxCell id="62" value="- carHourlyFineRate : double" style="text;html=1;align=center;verticalAlign=middle;resizable=0;points=[];autosize=1;strokeColor=none;fillColor=none;" parent="53" vertex="1">
                    <mxGeometry x="15" y="170" width="180" height="30" as="geometry"/>
                </mxCell>
                <mxCell id="63" value="- carDailyFineRate : double" style="text;html=1;align=center;verticalAlign=middle;resizable=0;points=[];autosize=1;strokeColor=none;fillColor=none;" parent="53" vertex="1">
                    <mxGeometry x="15" y="190" width="170" height="30" as="geometry"/>
                </mxCell>
                <mxCell id="65" value="- busHourlyFineRate : double" style="text;html=1;align=center;verticalAlign=middle;resizable=0;points=[];autosize=1;strokeColor=none;fillColor=none;" parent="53" vertex="1">
                    <mxGeometry x="15" y="210" width="180" height="30" as="geometry"/>
                </mxCell>
                <mxCell id="66" value="- busDailyFineRate : double" style="text;html=1;align=center;verticalAlign=middle;resizable=0;points=[];autosize=1;strokeColor=none;fillColor=none;" parent="53" vertex="1">
                    <mxGeometry x="15" y="230" width="170" height="30" as="geometry"/>
                </mxCell>
                <mxCell id="67" value="- bikeHourlyFineRate : double" style="text;html=1;align=center;verticalAlign=middle;resizable=0;points=[];autosize=1;strokeColor=none;fillColor=none;" parent="53" vertex="1">
                    <mxGeometry x="15" y="250" width="180" height="30" as="geometry"/>
                </mxCell>
                <mxCell id="68" value="- bikeDailyFineRate : double" style="text;html=1;align=center;verticalAlign=middle;resizable=0;points=[];autosize=1;strokeColor=none;fillColor=none;" parent="53" vertex="1">
                    <mxGeometry x="15" y="270" width="170" height="30" as="geometry"/>
                </mxCell>
                <mxCell id="70" value="&amp;nbsp; - token : int" style="text;html=1;align=center;verticalAlign=middle;resizable=0;points=[];autosize=1;strokeColor=none;fillColor=none;" parent="53" vertex="1">
                    <mxGeometry x="-5" y="330" width="90" height="30" as="geometry"/>
                </mxCell>
                <mxCell id="71" value="- amount : double" style="text;html=1;align=center;verticalAlign=middle;resizable=0;points=[];autosize=1;strokeColor=none;fillColor=none;" parent="53" vertex="1">
                    <mxGeometry y="350" width="120" height="30" as="geometry"/>
                </mxCell>
                <mxCell id="72" value="- extraAmount : double" style="text;html=1;align=center;verticalAlign=middle;resizable=0;points=[];autosize=1;strokeColor=none;fillColor=none;" parent="53" vertex="1">
                    <mxGeometry x="5" y="370" width="140" height="30" as="geometry"/>
                </mxCell>
                <mxCell id="73" value="- fine : double" style="text;html=1;align=center;verticalAlign=middle;resizable=0;points=[];autosize=1;strokeColor=none;fillColor=none;" parent="53" vertex="1">
                    <mxGeometry y="390" width="100" height="30" as="geometry"/>
                </mxCell>
                <mxCell id="74" value="- generatedTokens : unordered_map&amp;lt; int, bool &amp;gt;" style="text;html=1;align=center;verticalAlign=middle;resizable=0;points=[];autosize=1;strokeColor=none;fillColor=none;" parent="53" vertex="1">
                    <mxGeometry y="410" width="280" height="30" as="geometry"/>
                </mxCell>
                <mxCell id="75" value="* totalAmount : double" style="text;html=1;align=center;verticalAlign=middle;resizable=0;points=[];autosize=1;strokeColor=none;fillColor=none;" parent="53" vertex="1">
                    <mxGeometry y="450" width="140" height="30" as="geometry"/>
                </mxCell>
                <mxCell id="78" value="+ BillCalculate ( int, double, double, double,double )&amp;nbsp;" style="text;html=1;align=center;verticalAlign=middle;resizable=0;points=[];autosize=1;strokeColor=none;fillColor=none;" parent="53" vertex="1">
                    <mxGeometry y="490" width="300" height="30" as="geometry"/>
                </mxCell>
                <mxCell id="79" value="+ getCurrentTime() : string" style="text;html=1;align=center;verticalAlign=middle;resizable=0;points=[];autosize=1;strokeColor=none;fillColor=none;" parent="53" vertex="1">
                    <mxGeometry y="510" width="160" height="30" as="geometry"/>
                </mxCell>
                <mxCell id="81" value="&lt;br&gt;+ generateToken() : void" style="text;html=1;align=center;verticalAlign=middle;resizable=0;points=[];autosize=1;strokeColor=none;fillColor=none;" parent="53" vertex="1">
                    <mxGeometry y="520" width="150" height="40" as="geometry"/>
                </mxCell>
                <mxCell id="82" value="+ getToken() : int" style="text;html=1;align=center;verticalAlign=middle;resizable=0;points=[];autosize=1;strokeColor=none;fillColor=none;" parent="53" vertex="1">
                    <mxGeometry y="550" width="110" height="30" as="geometry"/>
                </mxCell>
                <mxCell id="83" value="+ calculateOVerStayTime ( time_t, int, int ) : double" style="text;html=1;align=center;verticalAlign=middle;resizable=0;points=[];autosize=1;strokeColor=none;fillColor=none;" parent="53" vertex="1">
                    <mxGeometry y="570" width="290" height="30" as="geometry"/>
                </mxCell>
                <mxCell id="85" value="+ billCalculate ( string, RateConfig&amp;amp; ) : void" style="text;html=1;align=center;verticalAlign=middle;resizable=0;points=[];autosize=1;strokeColor=none;fillColor=none;" parent="53" vertex="1">
                    <mxGeometry y="590" width="250" height="30" as="geometry"/>
                </mxCell>
                <mxCell id="86" value="+ displayBill() : bool" style="text;html=1;align=center;verticalAlign=middle;resizable=0;points=[];autosize=1;strokeColor=none;fillColor=none;" parent="53" vertex="1">
                    <mxGeometry y="610" width="130" height="30" as="geometry"/>
                </mxCell>
                <mxCell id="87" value="+ AskForPayment() : void" style="text;html=1;align=center;verticalAlign=middle;resizable=0;points=[];autosize=1;strokeColor=none;fillColor=none;" parent="53" vertex="1">
                    <mxGeometry y="630" width="160" height="30" as="geometry"/>
                </mxCell>
                <mxCell id="88" value="+ getAmount() : double" style="text;html=1;align=center;verticalAlign=middle;resizable=0;points=[];autosize=1;strokeColor=none;fillColor=none;" parent="53" vertex="1">
                    <mxGeometry y="650" width="150" height="30" as="geometry"/>
                </mxCell>
                <mxCell id="69" value="" style="endArrow=none;html=1;" parent="1" edge="1">
                    <mxGeometry width="50" height="50" relative="1" as="geometry">
                        <mxPoint x="300" y="760" as="sourcePoint"/>
                        <mxPoint x="700" y="760" as="targetPoint"/>
                    </mxGeometry>
                </mxCell>
                <mxCell id="76" value="" style="endArrow=none;html=1;exitX=0.005;exitY=1.035;exitDx=0;exitDy=0;exitPerimeter=0;" parent="1" source="74" edge="1">
                    <mxGeometry width="50" height="50" relative="1" as="geometry">
                        <mxPoint x="530" y="800" as="sourcePoint"/>
                        <mxPoint x="700" y="880" as="targetPoint"/>
                    </mxGeometry>
                </mxCell>
                <mxCell id="77" value="" style="endArrow=none;html=1;exitX=0.001;exitY=0.982;exitDx=0;exitDy=0;exitPerimeter=0;" parent="1" source="75" edge="1">
                    <mxGeometry width="50" height="50" relative="1" as="geometry">
                        <mxPoint x="530" y="990" as="sourcePoint"/>
                        <mxPoint x="700" y="919" as="targetPoint"/>
                    </mxGeometry>
                </mxCell>
                <mxCell id="l_bYTn5K-WHywQLocLNn-290" style="edgeStyle=orthogonalEdgeStyle;rounded=0;orthogonalLoop=1;jettySize=auto;html=1;exitX=0.5;exitY=0;exitDx=0;exitDy=0;" parent="1" source="131" edge="1">
                    <mxGeometry relative="1" as="geometry">
                        <mxPoint x="700" y="910" as="targetPoint"/>
                        <Array as="points">
                            <mxPoint x="900" y="910"/>
                        </Array>
                    </mxGeometry>
                </mxCell>
                <mxCell id="131" value="&lt;h4 style=&quot;border-color: var(--border-color); font-family: &amp;quot;Architects Daughter&amp;quot;; font-size: 20px;&quot;&gt;&lt;span style=&quot;border-color: var(--border-color); font-weight: normal;&quot;&gt;Car&lt;/span&gt;&lt;/h4&gt;" style="swimlane;whiteSpace=wrap;html=1;fillColor=#fff2cc;strokeColor=#d6b656;" parent="1" vertex="1">
                    <mxGeometry x="720" y="1220" width="360" height="160" as="geometry">
                        <mxRectangle x="650" y="1240" width="80" height="90" as="alternateBounds"/>
                    </mxGeometry>
                </mxCell>
                <mxCell id="134" value="- fine : double" style="text;html=1;align=center;verticalAlign=middle;resizable=0;points=[];autosize=1;strokeColor=none;fillColor=none;" parent="131" vertex="1">
                    <mxGeometry x="5" y="30" width="100" height="30" as="geometry"/>
                </mxCell>
                <mxCell id="135" value="" style="endArrow=none;html=1;" parent="131" edge="1">
                    <mxGeometry width="50" height="50" relative="1" as="geometry">
                        <mxPoint y="60" as="sourcePoint"/>
                        <mxPoint x="360" y="60" as="targetPoint"/>
                    </mxGeometry>
                </mxCell>
                <mxCell id="136" value="+ setFine( double ) : void" style="text;html=1;align=center;verticalAlign=middle;resizable=0;points=[];autosize=1;strokeColor=none;fillColor=none;" parent="131" vertex="1">
                    <mxGeometry y="60" width="160" height="30" as="geometry"/>
                </mxCell>
                <mxCell id="139" value="+ updateTotalAmount() : void" style="text;html=1;align=center;verticalAlign=middle;resizable=0;points=[];autosize=1;strokeColor=none;fillColor=none;" parent="131" vertex="1">
                    <mxGeometry y="80" width="180" height="30" as="geometry"/>
                </mxCell>
                <mxCell id="140" value="+ getFine() : double" style="text;html=1;align=center;verticalAlign=middle;resizable=0;points=[];autosize=1;strokeColor=none;fillColor=none;" parent="131" vertex="1">
                    <mxGeometry y="100" width="130" height="30" as="geometry"/>
                </mxCell>
                <mxCell id="141" value="+ carPark ( unordered_map&amp;lt; string, Car&amp;gt;&amp;amp;, RateConfig&amp;amp; ) : void" style="text;html=1;align=center;verticalAlign=middle;resizable=0;points=[];autosize=1;strokeColor=none;fillColor=none;" parent="131" vertex="1">
                    <mxGeometry x="-5" y="120" width="370" height="30" as="geometry"/>
                </mxCell>
                <mxCell id="142" value="&lt;h4 style=&quot;border-color: var(--border-color); font-family: &amp;quot;Architects Daughter&amp;quot;; font-size: 20px;&quot;&gt;&lt;span style=&quot;border-color: var(--border-color); font-weight: normal;&quot;&gt;Bike&lt;/span&gt;&lt;/h4&gt;" style="swimlane;whiteSpace=wrap;html=1;fillColor=#fff2cc;strokeColor=#d6b656;" parent="1" vertex="1">
                    <mxGeometry x="-100" y="1220" width="365" height="160" as="geometry">
                        <mxRectangle x="650" y="1240" width="80" height="90" as="alternateBounds"/>
                    </mxGeometry>
                </mxCell>
                <mxCell id="143" value="- fine : double" style="text;html=1;align=center;verticalAlign=middle;resizable=0;points=[];autosize=1;strokeColor=none;fillColor=none;" parent="142" vertex="1">
                    <mxGeometry x="5" y="30" width="100" height="30" as="geometry"/>
                </mxCell>
                <mxCell id="144" value="" style="endArrow=none;html=1;" parent="142" edge="1">
                    <mxGeometry width="50" height="50" relative="1" as="geometry">
                        <mxPoint y="60" as="sourcePoint"/>
                        <mxPoint x="360" y="60" as="targetPoint"/>
                    </mxGeometry>
                </mxCell>
                <mxCell id="145" value="+ setFine( double ) : void" style="text;html=1;align=center;verticalAlign=middle;resizable=0;points=[];autosize=1;strokeColor=none;fillColor=none;" parent="142" vertex="1">
                    <mxGeometry y="60" width="160" height="30" as="geometry"/>
                </mxCell>
                <mxCell id="146" value="+ updateTotalAmount() : void" style="text;html=1;align=center;verticalAlign=middle;resizable=0;points=[];autosize=1;strokeColor=none;fillColor=none;" parent="142" vertex="1">
                    <mxGeometry y="80" width="180" height="30" as="geometry"/>
                </mxCell>
                <mxCell id="147" value="+ getFine() : double" style="text;html=1;align=center;verticalAlign=middle;resizable=0;points=[];autosize=1;strokeColor=none;fillColor=none;" parent="142" vertex="1">
                    <mxGeometry y="100" width="130" height="30" as="geometry"/>
                </mxCell>
                <mxCell id="148" value="+ bikePark ( unordered_map&amp;lt; string, Bike&amp;gt;&amp;amp;, RateConfig&amp;amp; ) : void" style="text;html=1;align=center;verticalAlign=middle;resizable=0;points=[];autosize=1;strokeColor=none;fillColor=none;" parent="142" vertex="1">
                    <mxGeometry x="-5" y="120" width="370" height="30" as="geometry"/>
                </mxCell>
                <mxCell id="l_bYTn5K-WHywQLocLNn-292" style="edgeStyle=orthogonalEdgeStyle;rounded=0;orthogonalLoop=1;jettySize=auto;html=1;exitX=0.5;exitY=0;exitDx=0;exitDy=0;entryX=0.5;entryY=1;entryDx=0;entryDy=0;" parent="1" source="149" target="53" edge="1">
                    <mxGeometry relative="1" as="geometry"/>
                </mxCell>
                <mxCell id="149" value="&lt;h4 style=&quot;border-color: var(--border-color); font-family: &amp;quot;Architects Daughter&amp;quot;; font-size: 20px;&quot;&gt;&lt;span style=&quot;border-color: var(--border-color); font-weight: normal;&quot;&gt;Bus&lt;/span&gt;&lt;/h4&gt;" style="swimlane;whiteSpace=wrap;html=1;fillColor=#fff2cc;strokeColor=#d6b656;" parent="1" vertex="1">
                    <mxGeometry x="310" y="1220" width="365" height="160" as="geometry">
                        <mxRectangle x="650" y="1240" width="80" height="90" as="alternateBounds"/>
                    </mxGeometry>
                </mxCell>
                <mxCell id="150" value="- fine : double" style="text;html=1;align=center;verticalAlign=middle;resizable=0;points=[];autosize=1;strokeColor=none;fillColor=none;" parent="149" vertex="1">
                    <mxGeometry x="5" y="30" width="100" height="30" as="geometry"/>
                </mxCell>
                <mxCell id="151" value="" style="endArrow=none;html=1;" parent="149" edge="1">
                    <mxGeometry width="50" height="50" relative="1" as="geometry">
                        <mxPoint y="60" as="sourcePoint"/>
                        <mxPoint x="360" y="60" as="targetPoint"/>
                    </mxGeometry>
                </mxCell>
                <mxCell id="152" value="+ setFine( double ) : void" style="text;html=1;align=center;verticalAlign=middle;resizable=0;points=[];autosize=1;strokeColor=none;fillColor=none;" parent="149" vertex="1">
                    <mxGeometry y="60" width="160" height="30" as="geometry"/>
                </mxCell>
                <mxCell id="153" value="+ updateTotalAmount() : void" style="text;html=1;align=center;verticalAlign=middle;resizable=0;points=[];autosize=1;strokeColor=none;fillColor=none;" parent="149" vertex="1">
                    <mxGeometry y="80" width="180" height="30" as="geometry"/>
                </mxCell>
                <mxCell id="154" value="+ getFine() : double" style="text;html=1;align=center;verticalAlign=middle;resizable=0;points=[];autosize=1;strokeColor=none;fillColor=none;" parent="149" vertex="1">
                    <mxGeometry y="100" width="130" height="30" as="geometry"/>
                </mxCell>
                <mxCell id="155" value="+ busPark ( unordered_map&amp;lt; string, Bus&amp;gt;&amp;amp;, RateConfig&amp;amp; ) : void" style="text;html=1;align=center;verticalAlign=middle;resizable=0;points=[];autosize=1;strokeColor=none;fillColor=none;" parent="149" vertex="1">
                    <mxGeometry x="-5" y="120" width="370" height="30" as="geometry"/>
                </mxCell>
                <mxCell id="165" value="&lt;h4 style=&quot;border-color: var(--border-color); font-family: &amp;quot;Architects Daughter&amp;quot;; font-size: 20px;&quot;&gt;&lt;span style=&quot;border-color: var(--border-color); font-weight: normal;&quot;&gt;ErrorHandling&lt;/span&gt;&lt;/h4&gt;" style="swimlane;whiteSpace=wrap;html=1;fillColor=#ffe6cc;strokeColor=#d79b00;" parent="1" vertex="1">
                    <mxGeometry x="352.5" y="-360" width="280" height="270" as="geometry"/>
                </mxCell>
                <mxCell id="169" value="+ phoneValidation( string ) : bool" style="text;html=1;align=center;verticalAlign=middle;resizable=0;points=[];autosize=1;strokeColor=none;fillColor=none;" parent="165" vertex="1">
                    <mxGeometry x="-7.5" y="30" width="200" height="30" as="geometry"/>
                </mxCell>
                <mxCell id="170" value="+ plateNoValidation( string ) : bool&amp;nbsp;" style="text;html=1;align=center;verticalAlign=middle;resizable=0;points=[];autosize=1;strokeColor=none;fillColor=none;" parent="165" vertex="1">
                    <mxGeometry x="-7.5" y="50" width="210" height="30" as="geometry"/>
                </mxCell>
                <mxCell id="171" value="+ hoursValidation ( string ) : bool" style="text;html=1;align=center;verticalAlign=middle;resizable=0;points=[];autosize=1;strokeColor=none;fillColor=none;" parent="165" vertex="1">
                    <mxGeometry x="-7.5" y="70" width="200" height="30" as="geometry"/>
                </mxCell>
                <mxCell id="172" value="+ daysValidation ( string ) : bool" style="text;html=1;align=center;verticalAlign=middle;resizable=0;points=[];autosize=1;strokeColor=none;fillColor=none;" parent="165" vertex="1">
                    <mxGeometry x="-2.5" y="90" width="190" height="30" as="geometry"/>
                </mxCell>
                <mxCell id="173" value="+ menuChoice ( string ) : bool" style="text;html=1;align=center;verticalAlign=middle;resizable=0;points=[];autosize=1;strokeColor=none;fillColor=none;" parent="165" vertex="1">
                    <mxGeometry x="-2.5" y="110" width="180" height="30" as="geometry"/>
                </mxCell>
                <mxCell id="174" value="+ amountValid ( string ) : bool" style="text;html=1;align=center;verticalAlign=middle;resizable=0;points=[];autosize=1;strokeColor=none;fillColor=none;" parent="165" vertex="1">
                    <mxGeometry x="-2.5" y="130" width="180" height="30" as="geometry"/>
                </mxCell>
                <mxCell id="175" value="+ tokenValid ( string ) : bool" style="text;html=1;align=center;verticalAlign=middle;resizable=0;points=[];autosize=1;strokeColor=none;fillColor=none;" parent="165" vertex="1">
                    <mxGeometry x="-2.5" y="150" width="170" height="30" as="geometry"/>
                </mxCell>
                <mxCell id="176" value="+ upperCase ( string ) : void" style="text;html=1;align=center;verticalAlign=middle;resizable=0;points=[];autosize=1;strokeColor=none;fillColor=none;" parent="165" vertex="1">
                    <mxGeometry x="-2.5" y="170" width="170" height="30" as="geometry"/>
                </mxCell>
                <mxCell id="177" value="+ ratesValid ( string ) : bool" style="text;html=1;align=center;verticalAlign=middle;resizable=0;points=[];autosize=1;strokeColor=none;fillColor=none;" parent="165" vertex="1">
                    <mxGeometry x="-2.5" y="190" width="170" height="30" as="geometry"/>
                </mxCell>
                <mxCell id="178" value="+ passLogic( sting, string ) : bool" style="text;html=1;align=center;verticalAlign=middle;resizable=0;points=[];autosize=1;strokeColor=none;fillColor=none;" parent="165" vertex="1">
                    <mxGeometry x="-2.5" y="210" width="200" height="30" as="geometry"/>
                </mxCell>
                <mxCell id="l_bYTn5K-WHywQLocLNn-295" style="edgeStyle=orthogonalEdgeStyle;rounded=0;orthogonalLoop=1;jettySize=auto;html=1;" parent="1" edge="1">
                    <mxGeometry relative="1" as="geometry">
                        <mxPoint x="820" y="2140" as="sourcePoint"/>
                        <mxPoint x="630" y="-190" as="targetPoint"/>
                        <Array as="points">
                            <mxPoint x="820" y="2140"/>
                            <mxPoint x="820" y="2145"/>
                            <mxPoint x="1260" y="2145"/>
                            <mxPoint x="1260" y="-190"/>
                        </Array>
                    </mxGeometry>
                </mxCell>
                <mxCell id="179" value="&lt;h4 style=&quot;border-color: var(--border-color); font-family: &amp;quot;Architects Daughter&amp;quot;; font-size: 20px;&quot;&gt;&lt;span style=&quot;font-weight: 400;&quot;&gt;ParkAndUnaprk&lt;/span&gt;&lt;/h4&gt;" style="swimlane;whiteSpace=wrap;html=1;fillColor=#e1d5e7;strokeColor=#9673a6;" parent="1" vertex="1">
                    <mxGeometry x="240" y="1490" width="580" height="1350" as="geometry"/>
                </mxCell>
                <mxCell id="180" value="- cars : unordered_map ( string, Car )&amp;nbsp;" style="text;html=1;align=center;verticalAlign=middle;resizable=0;points=[];autosize=1;strokeColor=none;fillColor=none;" parent="179" vertex="1">
                    <mxGeometry y="30" width="220" height="30" as="geometry"/>
                </mxCell>
                <mxCell id="181" value="- buses : unordered_map ( string, Bus )&amp;nbsp;" style="text;html=1;align=center;verticalAlign=middle;resizable=0;points=[];autosize=1;strokeColor=none;fillColor=none;" parent="179" vertex="1">
                    <mxGeometry x="-5" y="50" width="240" height="30" as="geometry"/>
                </mxCell>
                <mxCell id="182" value="- bikes : unordered_map ( string, Bike )&amp;nbsp;" style="text;html=1;align=center;verticalAlign=middle;resizable=0;points=[];autosize=1;strokeColor=none;fillColor=none;" parent="179" vertex="1">
                    <mxGeometry y="70" width="230" height="30" as="geometry"/>
                </mxCell>
                <mxCell id="183" value="- unparkedCars : unordered_map ( string, Bike )&amp;nbsp;" style="text;html=1;align=center;verticalAlign=middle;resizable=0;points=[];autosize=1;strokeColor=none;fillColor=none;" parent="179" vertex="1">
                    <mxGeometry y="100" width="280" height="30" as="geometry"/>
                </mxCell>
                <mxCell id="184" value="&amp;nbsp; &amp;nbsp;- unparkedBuses : unordered_map ( string, Bike )&amp;nbsp;" style="text;html=1;align=center;verticalAlign=middle;resizable=0;points=[];autosize=1;strokeColor=none;fillColor=none;" parent="179" vertex="1">
                    <mxGeometry x="-10" y="120" width="300" height="30" as="geometry"/>
                </mxCell>
                <mxCell id="185" value="&amp;nbsp; - unparkedBikes : unordered_map ( string, Bike )&amp;nbsp;" style="text;html=1;align=center;verticalAlign=middle;resizable=0;points=[];autosize=1;strokeColor=none;fillColor=none;" parent="179" vertex="1">
                    <mxGeometry x="-5" y="140" width="290" height="30" as="geometry"/>
                </mxCell>
                <mxCell id="186" value="- blockedVehicles : unordered_map ( string, int)&amp;nbsp;" style="text;html=1;align=center;verticalAlign=middle;resizable=0;points=[];autosize=1;strokeColor=none;fillColor=none;" parent="179" vertex="1">
                    <mxGeometry y="170" width="280" height="30" as="geometry"/>
                </mxCell>
                <mxCell id="187" value="- parkedplateNumbers : vector &amp;lt;string&amp;gt;&lt;br&gt;" style="text;html=1;align=center;verticalAlign=middle;resizable=0;points=[];autosize=1;strokeColor=none;fillColor=none;" parent="179" vertex="1">
                    <mxGeometry y="185" width="230" height="30" as="geometry"/>
                </mxCell>
                <mxCell id="188" value="- payment : paymentRecord" style="text;html=1;align=center;verticalAlign=middle;resizable=0;points=[];autosize=1;strokeColor=none;fillColor=none;" parent="179" vertex="1">
                    <mxGeometry y="210" width="170" height="30" as="geometry"/>
                </mxCell>
                <mxCell id="189" value="- rates: BillCalculate::RateConfig " style="text;html=1;align=center;verticalAlign=middle;resizable=0;points=[];autosize=1;strokeColor=none;fillColor=none;" parent="179" vertex="1">
                    <mxGeometry y="230" width="200" height="30" as="geometry"/>
                </mxCell>
                <mxCell id="190" value="- token: int&amp;nbsp;" style="text;html=1;align=center;verticalAlign=middle;resizable=0;points=[];autosize=1;strokeColor=none;fillColor=none;" parent="179" vertex="1">
                    <mxGeometry y="250" width="80" height="30" as="geometry"/>
                </mxCell>
                <mxCell id="191" value="&amp;nbsp; - plateNumber: string " style="text;html=1;align=center;verticalAlign=middle;resizable=0;points=[];autosize=1;strokeColor=none;fillColor=none;" parent="179" vertex="1">
                    <mxGeometry x="-5" y="270" width="140" height="30" as="geometry"/>
                </mxCell>
                <mxCell id="192" value="- found: bool " style="text;html=1;align=center;verticalAlign=middle;resizable=0;points=[];autosize=1;strokeColor=none;fillColor=none;" parent="179" vertex="1">
                    <mxGeometry y="290" width="90" height="30" as="geometry"/>
                </mxCell>
                <mxCell id="193" value="&amp;nbsp;- unParkToken: string " style="text;html=1;align=center;verticalAlign=middle;resizable=0;points=[];autosize=1;strokeColor=none;fillColor=none;" parent="179" vertex="1">
                    <mxGeometry y="310" width="140" height="30" as="geometry"/>
                </mxCell>
                <mxCell id="194" value="&amp;nbsp; - plateAttempts: int" style="text;html=1;align=center;verticalAlign=middle;resizable=0;points=[];autosize=1;strokeColor=none;fillColor=none;" parent="179" vertex="1">
                    <mxGeometry x="-5" y="330" width="130" height="30" as="geometry"/>
                </mxCell>
                <mxCell id="195" value="- tokenAttempts: int  " style="text;html=1;align=center;verticalAlign=middle;resizable=0;points=[];autosize=1;strokeColor=none;fillColor=none;" parent="179" vertex="1">
                    <mxGeometry y="350" width="130" height="30" as="geometry"/>
                </mxCell>
                <mxCell id="197" value="- formatTime( time_t): string" style="text;html=1;align=center;verticalAlign=middle;resizable=0;points=[];autosize=1;strokeColor=none;fillColor=none;" parent="179" vertex="1">
                    <mxGeometry y="370" width="170" height="30" as="geometry"/>
                </mxCell>
                <mxCell id="198" value="- quickSort&amp;lt;T&amp;gt;( vector&amp;lt;T&amp;gt;&amp;amp;list, int, int ): void" style="text;html=1;align=center;verticalAlign=middle;resizable=0;points=[];autosize=1;strokeColor=none;fillColor=none;" parent="179" vertex="1">
                    <mxGeometry y="390" width="260" height="30" as="geometry"/>
                </mxCell>
                <mxCell id="200" value="- deleteRecord&amp;lt;T&amp;gt;( unordered_map&amp;lt;string, T&amp;gt;&amp;amp;records, string ) : void" style="text;html=1;align=center;verticalAlign=middle;resizable=0;points=[];autosize=1;strokeColor=none;fillColor=none;" parent="179" vertex="1">
                    <mxGeometry x="-5" y="410" width="400" height="30" as="geometry"/>
                </mxCell>
                <mxCell id="201" value="- deleteAllRecords&amp;lt;T&amp;gt;( unordered_map&amp;lt;string, T&amp;gt;&amp;amp;records, string ) : void" style="text;html=1;align=center;verticalAlign=middle;resizable=0;points=[];autosize=1;strokeColor=none;fillColor=none;" parent="179" vertex="1">
                    <mxGeometry x="-5" y="430" width="420" height="30" as="geometry"/>
                </mxCell>
                <mxCell id="202" value="- blockVehicle( string, int ) : void" style="text;html=1;align=center;verticalAlign=middle;resizable=0;points=[];autosize=1;strokeColor=none;fillColor=none;" parent="179" vertex="1">
                    <mxGeometry y="450" width="190" height="30" as="geometry"/>
                </mxCell>
                <mxCell id="203" value="- isTokenBlocked ( string, int) : bool" style="text;html=1;align=center;verticalAlign=middle;resizable=0;points=[];autosize=1;strokeColor=none;fillColor=none;" parent="179" vertex="1">
                    <mxGeometry y="470" width="210" height="30" as="geometry"/>
                </mxCell>
                <mxCell id="204" value="- removePlateNumber ( string ) : void" style="text;html=1;align=center;verticalAlign=middle;resizable=0;points=[];autosize=1;strokeColor=none;fillColor=none;" parent="179" vertex="1">
                    <mxGeometry y="490" width="220" height="30" as="geometry"/>
                </mxCell>
                <mxCell id="206" value="+ ParkAndUnPark()" style="text;html=1;align=center;verticalAlign=middle;resizable=0;points=[];autosize=1;strokeColor=none;fillColor=none;" parent="179" vertex="1">
                    <mxGeometry y="530" width="130" height="30" as="geometry"/>
                </mxCell>
                <mxCell id="207" value="+ setCarRates( double, double, double, double ) : void" style="text;html=1;align=center;verticalAlign=middle;resizable=0;points=[];autosize=1;strokeColor=none;fillColor=none;" parent="179" vertex="1">
                    <mxGeometry y="550" width="310" height="30" as="geometry"/>
                </mxCell>
                <mxCell id="208" value="+ setBusRates( double, double, double, double ) : void" style="text;html=1;align=center;verticalAlign=middle;resizable=0;points=[];autosize=1;strokeColor=none;fillColor=none;" parent="179" vertex="1">
                    <mxGeometry y="570" width="310" height="30" as="geometry"/>
                </mxCell>
                <mxCell id="209" value="+ setBikeRates( double, double, double, double ) : void" style="text;html=1;align=center;verticalAlign=middle;resizable=0;points=[];autosize=1;strokeColor=none;fillColor=none;" parent="179" vertex="1">
                    <mxGeometry x="-5" y="590" width="320" height="30" as="geometry"/>
                </mxCell>
                <mxCell id="210" value="+ getRates(): BillCalculate::RateConfig" style="text;html=1;align=center;verticalAlign=middle;resizable=0;points=[];autosize=1;strokeColor=none;fillColor=none;" parent="179" vertex="1">
                    <mxGeometry y="620" width="230" height="30" as="geometry"/>
                </mxCell>
                <mxCell id="211" value="+ unblockVehicle( string, int ) : void" style="text;html=1;align=center;verticalAlign=middle;resizable=0;points=[];autosize=1;strokeColor=none;fillColor=none;" parent="179" vertex="1">
                    <mxGeometry y="640" width="210" height="30" as="geometry"/>
                </mxCell>
                <mxCell id="212" value="+ parkCar() : void" style="text;html=1;align=center;verticalAlign=middle;resizable=0;points=[];autosize=1;strokeColor=none;fillColor=none;" parent="179" vertex="1">
                    <mxGeometry y="670" width="120" height="30" as="geometry"/>
                </mxCell>
                <mxCell id="213" value="+ parkBus() : void" style="text;html=1;align=center;verticalAlign=middle;resizable=0;points=[];autosize=1;strokeColor=none;fillColor=none;" parent="179" vertex="1">
                    <mxGeometry y="690" width="120" height="30" as="geometry"/>
                </mxCell>
                <mxCell id="214" value="&amp;nbsp;+ parkBike() : void" style="text;html=1;align=center;verticalAlign=middle;resizable=0;points=[];autosize=1;strokeColor=none;fillColor=none;" parent="179" vertex="1">
                    <mxGeometry y="710" width="120" height="30" as="geometry"/>
                </mxCell>
                <mxCell id="215" value="&amp;nbsp;+ unparkCar() : void" style="text;html=1;align=center;verticalAlign=middle;resizable=0;points=[];autosize=1;strokeColor=none;fillColor=none;" parent="179" vertex="1">
                    <mxGeometry y="740" width="130" height="30" as="geometry"/>
                </mxCell>
                <mxCell id="217" value="&amp;nbsp;+ unparkBus() : void" style="text;html=1;align=center;verticalAlign=middle;resizable=0;points=[];autosize=1;strokeColor=none;fillColor=none;" parent="179" vertex="1">
                    <mxGeometry y="760" width="130" height="30" as="geometry"/>
                </mxCell>
                <mxCell id="218" value="&amp;nbsp;+ unparkBike() : void" style="text;html=1;align=center;verticalAlign=middle;resizable=0;points=[];autosize=1;strokeColor=none;fillColor=none;" parent="179" vertex="1">
                    <mxGeometry x="-5" y="780" width="140" height="30" as="geometry"/>
                </mxCell>
                <mxCell id="219" value="+ displayParkedCars() : void" style="text;html=1;align=center;verticalAlign=middle;resizable=0;points=[];autosize=1;strokeColor=none;fillColor=none;" parent="179" vertex="1">
                    <mxGeometry y="800" width="170" height="30" as="geometry"/>
                </mxCell>
                <mxCell id="220" value="&amp;nbsp;+ displayParkedBuses() : void&amp;nbsp;" style="text;html=1;align=center;verticalAlign=middle;resizable=0;points=[];autosize=1;strokeColor=none;fillColor=none;" parent="179" vertex="1">
                    <mxGeometry x="-5" y="820" width="190" height="30" as="geometry"/>
                </mxCell>
                <mxCell id="221" value="+ displayParkedBikes() : void&amp;nbsp;" style="text;html=1;align=center;verticalAlign=middle;resizable=0;points=[];autosize=1;strokeColor=none;fillColor=none;" parent="179" vertex="1">
                    <mxGeometry y="840" width="180" height="30" as="geometry"/>
                </mxCell>
                <mxCell id="222" value="+ displayUnparkedCars() : void&amp;nbsp;" style="text;html=1;align=center;verticalAlign=middle;resizable=0;points=[];autosize=1;strokeColor=none;fillColor=none;" parent="179" vertex="1">
                    <mxGeometry y="860" width="190" height="30" as="geometry"/>
                </mxCell>
                <mxCell id="224" value="+ displayUnparkedBuses() : void&amp;nbsp;" style="text;html=1;align=center;verticalAlign=middle;resizable=0;points=[];autosize=1;strokeColor=none;fillColor=none;" parent="179" vertex="1">
                    <mxGeometry y="880" width="200" height="30" as="geometry"/>
                </mxCell>
                <mxCell id="225" value="+ displayUnparkedBikes() : void&amp;nbsp;" style="text;html=1;align=center;verticalAlign=middle;resizable=0;points=[];autosize=1;strokeColor=none;fillColor=none;" parent="179" vertex="1">
                    <mxGeometry y="900" width="200" height="30" as="geometry"/>
                </mxCell>
                <mxCell id="226" value="+ payment() : void&amp;nbsp;" style="text;html=1;align=center;verticalAlign=middle;resizable=0;points=[];autosize=1;strokeColor=none;fillColor=none;" parent="179" vertex="1">
                    <mxGeometry x="5" y="920" width="120" height="30" as="geometry"/>
                </mxCell>
                <mxCell id="227" value="+ void deletePayRecords" style="text;html=1;align=center;verticalAlign=middle;resizable=0;points=[];autosize=1;strokeColor=none;fillColor=none;" parent="179" vertex="1">
                    <mxGeometry y="940" width="160" height="30" as="geometry"/>
                </mxCell>
                <mxCell id="228" value="+ withDraw( string ) : void" style="text;html=1;align=center;verticalAlign=middle;resizable=0;points=[];autosize=1;strokeColor=none;fillColor=none;" parent="179" vertex="1">
                    <mxGeometry y="965" width="160" height="30" as="geometry"/>
                </mxCell>
                <mxCell id="229" value="+ deleteSpecificPaymentRecord( string, string ) : void" style="text;html=1;align=center;verticalAlign=middle;resizable=0;points=[];autosize=1;strokeColor=none;fillColor=none;" parent="179" vertex="1">
                    <mxGeometry y="990" width="310" height="30" as="geometry"/>
                </mxCell>
                <mxCell id="230" value="+ deleteParkedCars() : void" style="text;html=1;align=center;verticalAlign=middle;resizable=0;points=[];autosize=1;strokeColor=none;fillColor=none;" parent="179" vertex="1">
                    <mxGeometry y="1010" width="170" height="30" as="geometry"/>
                </mxCell>
                <mxCell id="231" value="&amp;nbsp; &amp;nbsp;+ deleteParkedBus() : void" style="text;html=1;align=center;verticalAlign=middle;resizable=0;points=[];autosize=1;strokeColor=none;fillColor=none;" parent="179" vertex="1">
                    <mxGeometry x="-10" y="1030" width="180" height="30" as="geometry"/>
                </mxCell>
                <mxCell id="232" value="&amp;nbsp; &amp;nbsp;+ deleteParkedBike() : void" style="text;html=1;align=center;verticalAlign=middle;resizable=0;points=[];autosize=1;strokeColor=none;fillColor=none;" parent="179" vertex="1">
                    <mxGeometry x="-10" y="1055" width="180" height="30" as="geometry"/>
                </mxCell>
                <mxCell id="233" value="+ deleteUnparkedCars() : void" style="text;html=1;align=center;verticalAlign=middle;resizable=0;points=[];autosize=1;strokeColor=none;fillColor=none;" parent="179" vertex="1">
                    <mxGeometry x="5" y="1080" width="180" height="30" as="geometry"/>
                </mxCell>
                <mxCell id="234" value="&lt;br&gt;&lt;span style=&quot;color: rgb(0, 0, 0); font-family: Helvetica; font-size: 12px; font-style: normal; font-variant-ligatures: normal; font-variant-caps: normal; font-weight: 400; letter-spacing: normal; orphans: 2; text-align: center; text-indent: 0px; text-transform: none; widows: 2; word-spacing: 0px; -webkit-text-stroke-width: 0px; background-color: rgb(251, 251, 251); text-decoration-thickness: initial; text-decoration-style: initial; text-decoration-color: initial; float: none; display: inline !important;&quot;&gt;+ deleteUnparkedBus() : void&lt;/span&gt;" style="text;html=1;align=center;verticalAlign=middle;resizable=0;points=[];autosize=1;strokeColor=none;fillColor=none;" parent="179" vertex="1">
                    <mxGeometry x="5" y="1085" width="180" height="40" as="geometry"/>
                </mxCell>
                <mxCell id="235" value="&amp;nbsp;+ deletUnparkedBike() : void" style="text;html=1;align=center;verticalAlign=middle;resizable=0;points=[];autosize=1;strokeColor=none;fillColor=none;" parent="179" vertex="1">
                    <mxGeometry y="1120" width="180" height="30" as="geometry"/>
                </mxCell>
                <mxCell id="236" value="+ deleteAllparkedCars() : void" style="text;html=1;align=center;verticalAlign=middle;resizable=0;points=[];autosize=1;strokeColor=none;fillColor=none;" parent="179" vertex="1">
                    <mxGeometry x="5" y="1150" width="180" height="30" as="geometry"/>
                </mxCell>
                <mxCell id="237" value="+ deleteAllparkedBuses() : void" style="text;html=1;align=center;verticalAlign=middle;resizable=0;points=[];autosize=1;strokeColor=none;fillColor=none;" parent="179" vertex="1">
                    <mxGeometry x="5" y="1170" width="190" height="30" as="geometry"/>
                </mxCell>
                <mxCell id="238" value="+ deleteAllparkedBikes() : void" style="text;html=1;align=center;verticalAlign=middle;resizable=0;points=[];autosize=1;strokeColor=none;fillColor=none;" parent="179" vertex="1">
                    <mxGeometry x="5" y="1190" width="190" height="30" as="geometry"/>
                </mxCell>
                <mxCell id="239" value="+ deleteAllunparkedCars() : void" style="text;html=1;align=center;verticalAlign=middle;resizable=0;points=[];autosize=1;strokeColor=none;fillColor=none;" parent="179" vertex="1">
                    <mxGeometry x="5" y="1220" width="200" height="30" as="geometry"/>
                </mxCell>
                <mxCell id="240" value="+ deleteAllunparkedBuses() : void" style="text;html=1;align=center;verticalAlign=middle;resizable=0;points=[];autosize=1;strokeColor=none;fillColor=none;" parent="179" vertex="1">
                    <mxGeometry x="10" y="1240" width="200" height="30" as="geometry"/>
                </mxCell>
                <mxCell id="241" value="+ deleteAllunparkedBikes() : void" style="text;html=1;align=center;verticalAlign=middle;resizable=0;points=[];autosize=1;strokeColor=none;fillColor=none;" parent="179" vertex="1">
                    <mxGeometry x="10" y="1260" width="200" height="30" as="geometry"/>
                </mxCell>
                <mxCell id="242" value="+ deleteParkedRecords() : void" style="text;html=1;align=center;verticalAlign=middle;resizable=0;points=[];autosize=1;strokeColor=none;fillColor=none;" parent="179" vertex="1">
                    <mxGeometry x="10" y="1290" width="190" height="30" as="geometry"/>
                </mxCell>
                <mxCell id="243" value="+ deleteUnParkedRecords() : void" style="text;html=1;align=center;verticalAlign=middle;resizable=0;points=[];autosize=1;strokeColor=none;fillColor=none;" parent="179" vertex="1">
                    <mxGeometry x="15" y="1310" width="200" height="30" as="geometry"/>
                </mxCell>
                <mxCell id="l_bYTn5K-WHywQLocLNn-298" value="" style="rhombus;whiteSpace=wrap;html=1;fillColor=#000000;strokeColor=#b85450;" parent="179" vertex="1">
                    <mxGeometry x="-10" y="90" width="10" height="10" as="geometry"/>
                </mxCell>
                <mxCell id="l_bYTn5K-WHywQLocLNn-332" value="" style="rhombus;whiteSpace=wrap;html=1;fillColor=#000000;strokeColor=#b85450;" parent="179" vertex="1">
                    <mxGeometry x="-10" y="270" width="10" height="10" as="geometry"/>
                </mxCell>
                <mxCell id="205" value="" style="endArrow=none;html=1;" parent="1" edge="1">
                    <mxGeometry width="50" height="50" relative="1" as="geometry">
                        <mxPoint x="240" y="2020" as="sourcePoint"/>
                        <mxPoint x="820" y="2020" as="targetPoint"/>
                    </mxGeometry>
                </mxCell>
                <mxCell id="l_bYTn5K-WHywQLocLNn-289" style="edgeStyle=orthogonalEdgeStyle;rounded=0;orthogonalLoop=1;jettySize=auto;html=1;exitX=0.5;exitY=0;exitDx=0;exitDy=0;entryX=-0.006;entryY=0.773;entryDx=0;entryDy=0;entryPerimeter=0;" parent="1" source="142" target="75" edge="1">
                    <mxGeometry relative="1" as="geometry"/>
                </mxCell>
                <mxCell id="l_bYTn5K-WHywQLocLNn-296" value="" style="rhombus;whiteSpace=wrap;html=1;fillColor=#000000;strokeColor=#b85450;" parent="1" vertex="1">
                    <mxGeometry x="540" y="1480" width="10" height="10" as="geometry"/>
                </mxCell>
                <mxCell id="l_bYTn5K-WHywQLocLNn-297" value="" style="rhombus;whiteSpace=wrap;html=1;fillColor=#000000;strokeColor=#b85450;" parent="1" vertex="1">
                    <mxGeometry x="820" y="1570" width="10" height="10" as="geometry"/>
                </mxCell>
                <mxCell id="l_bYTn5K-WHywQLocLNn-301" value="" style="endArrow=none;html=1;rounded=0;exitX=0.5;exitY=0;exitDx=0;exitDy=0;" parent="1" source="l_bYTn5K-WHywQLocLNn-296" edge="1">
                    <mxGeometry width="50" height="50" relative="1" as="geometry">
                        <mxPoint x="580" y="1430" as="sourcePoint"/>
                        <mxPoint x="545" y="1380" as="targetPoint"/>
                    </mxGeometry>
                </mxCell>
                <mxCell id="l_bYTn5K-WHywQLocLNn-302" value="" style="endArrow=none;html=1;rounded=0;exitX=1;exitY=0.5;exitDx=0;exitDy=0;entryX=0.5;entryY=1;entryDx=0;entryDy=0;" parent="1" source="l_bYTn5K-WHywQLocLNn-297" target="131" edge="1">
                    <mxGeometry width="50" height="50" relative="1" as="geometry">
                        <mxPoint x="810" y="1430" as="sourcePoint"/>
                        <mxPoint x="860" y="1380" as="targetPoint"/>
                        <Array as="points">
                            <mxPoint x="900" y="1575"/>
                        </Array>
                    </mxGeometry>
                </mxCell>
                <mxCell id="l_bYTn5K-WHywQLocLNn-303" value="" style="endArrow=none;html=1;rounded=0;exitX=0;exitY=0.5;exitDx=0;exitDy=0;" parent="1" source="l_bYTn5K-WHywQLocLNn-298" edge="1">
                    <mxGeometry width="50" height="50" relative="1" as="geometry">
                        <mxPoint x="70" y="1430" as="sourcePoint"/>
                        <mxPoint x="120" y="1380" as="targetPoint"/>
                        <Array as="points">
                            <mxPoint x="120" y="1585"/>
                        </Array>
                    </mxGeometry>
                </mxCell>
                <mxCell id="l_bYTn5K-WHywQLocLNn-304" value="&lt;h4 style=&quot;border-color: var(--border-color); font-family: &amp;quot;Architects Daughter&amp;quot;; font-size: 20px;&quot;&gt;&lt;span style=&quot;font-weight: 400;&quot;&gt;PaymentRecords&lt;/span&gt;&lt;/h4&gt;" style="swimlane;whiteSpace=wrap;html=1;" parent="1" vertex="1">
                    <mxGeometry x="-400" y="1890" width="460" height="540" as="geometry"/>
                </mxCell>
                <mxCell id="l_bYTn5K-WHywQLocLNn-305" value="+ PaymentInfo" style="text;html=1;align=center;verticalAlign=middle;resizable=0;points=[];autosize=1;strokeColor=none;fillColor=none;" parent="l_bYTn5K-WHywQLocLNn-304" vertex="1">
                    <mxGeometry y="30" width="100" height="30" as="geometry"/>
                </mxCell>
                <mxCell id="l_bYTn5K-WHywQLocLNn-306" value="- int token" style="text;html=1;align=center;verticalAlign=middle;resizable=0;points=[];autosize=1;strokeColor=none;fillColor=none;" parent="l_bYTn5K-WHywQLocLNn-304" vertex="1">
                    <mxGeometry x="20" y="50" width="80" height="30" as="geometry"/>
                </mxCell>
                <mxCell id="l_bYTn5K-WHywQLocLNn-308" value="&amp;nbsp;- double amount" style="text;html=1;align=center;verticalAlign=middle;resizable=0;points=[];autosize=1;strokeColor=none;fillColor=none;" parent="l_bYTn5K-WHywQLocLNn-304" vertex="1">
                    <mxGeometry x="20" y="70" width="110" height="30" as="geometry"/>
                </mxCell>
                <mxCell id="l_bYTn5K-WHywQLocLNn-309" value="&amp;nbsp;- bool paid" style="text;html=1;align=center;verticalAlign=middle;resizable=0;points=[];autosize=1;strokeColor=none;fillColor=none;" parent="l_bYTn5K-WHywQLocLNn-304" vertex="1">
                    <mxGeometry x="20" y="90" width="80" height="30" as="geometry"/>
                </mxCell>
                <mxCell id="l_bYTn5K-WHywQLocLNn-310" value="- string vehicleType" style="text;html=1;align=center;verticalAlign=middle;resizable=0;points=[];autosize=1;strokeColor=none;fillColor=none;" parent="l_bYTn5K-WHywQLocLNn-304" vertex="1">
                    <mxGeometry x="20" y="110" width="130" height="30" as="geometry"/>
                </mxCell>
                <mxCell id="l_bYTn5K-WHywQLocLNn-311" value="- string cellNumber" style="text;html=1;align=center;verticalAlign=middle;resizable=0;points=[];autosize=1;strokeColor=none;fillColor=none;" parent="l_bYTn5K-WHywQLocLNn-304" vertex="1">
                    <mxGeometry x="25" y="130" width="120" height="30" as="geometry"/>
                </mxCell>
                <mxCell id="l_bYTn5K-WHywQLocLNn-312" value="- time_t parkTime" style="text;html=1;align=center;verticalAlign=middle;resizable=0;points=[];autosize=1;strokeColor=none;fillColor=none;" parent="l_bYTn5K-WHywQLocLNn-304" vertex="1">
                    <mxGeometry x="25" y="150" width="120" height="30" as="geometry"/>
                </mxCell>
                <mxCell id="l_bYTn5K-WHywQLocLNn-313" value="- time_t unparkTIme" style="text;html=1;align=center;verticalAlign=middle;resizable=0;points=[];autosize=1;strokeColor=none;fillColor=none;" parent="l_bYTn5K-WHywQLocLNn-304" vertex="1">
                    <mxGeometry x="25" y="170" width="130" height="30" as="geometry"/>
                </mxCell>
                <mxCell id="l_bYTn5K-WHywQLocLNn-314" value="- payments : unordered_map&amp;lt;string, PaymentInfo&amp;gt;" style="text;html=1;align=center;verticalAlign=middle;resizable=0;points=[];autosize=1;strokeColor=none;fillColor=none;" parent="l_bYTn5K-WHywQLocLNn-304" vertex="1">
                    <mxGeometry y="200" width="290" height="30" as="geometry"/>
                </mxCell>
                <mxCell id="l_bYTn5K-WHywQLocLNn-315" value="- double totalAmount" style="text;html=1;align=center;verticalAlign=middle;resizable=0;points=[];autosize=1;strokeColor=none;fillColor=none;" parent="l_bYTn5K-WHywQLocLNn-304" vertex="1">
                    <mxGeometry y="220" width="130" height="30" as="geometry"/>
                </mxCell>
                <mxCell id="l_bYTn5K-WHywQLocLNn-316" value="- double withdraw" style="text;html=1;align=center;verticalAlign=middle;resizable=0;points=[];autosize=1;strokeColor=none;fillColor=none;" parent="l_bYTn5K-WHywQLocLNn-304" vertex="1">
                    <mxGeometry y="240" width="120" height="30" as="geometry"/>
                </mxCell>
                <mxCell id="l_bYTn5K-WHywQLocLNn-319" value="- timeTostring() : time_t" style="text;html=1;align=center;verticalAlign=middle;resizable=0;points=[];autosize=1;strokeColor=none;fillColor=none;" parent="l_bYTn5K-WHywQLocLNn-304" vertex="1">
                    <mxGeometry y="280" width="150" height="30" as="geometry"/>
                </mxCell>
                <mxCell id="l_bYTn5K-WHywQLocLNn-318" value="- timeTostring() : string" style="text;html=1;align=center;verticalAlign=middle;resizable=0;points=[];autosize=1;strokeColor=none;fillColor=none;" parent="l_bYTn5K-WHywQLocLNn-304" vertex="1">
                    <mxGeometry x="5" y="260" width="140" height="30" as="geometry"/>
                </mxCell>
                <mxCell id="l_bYTn5K-WHywQLocLNn-320" value="- saveToFile() : void" style="text;html=1;align=center;verticalAlign=middle;resizable=0;points=[];autosize=1;strokeColor=none;fillColor=none;" parent="l_bYTn5K-WHywQLocLNn-304" vertex="1">
                    <mxGeometry x="5" y="300" width="130" height="30" as="geometry"/>
                </mxCell>
                <mxCell id="l_bYTn5K-WHywQLocLNn-321" value="- loadFromFile() : void" style="text;html=1;align=center;verticalAlign=middle;resizable=0;points=[];autosize=1;strokeColor=none;fillColor=none;" parent="l_bYTn5K-WHywQLocLNn-304" vertex="1">
                    <mxGeometry x="5" y="320" width="140" height="30" as="geometry"/>
                </mxCell>
                <mxCell id="l_bYTn5K-WHywQLocLNn-324" value="+ paymentRecord()" style="text;html=1;align=center;verticalAlign=middle;resizable=0;points=[];autosize=1;strokeColor=none;fillColor=none;" parent="l_bYTn5K-WHywQLocLNn-304" vertex="1">
                    <mxGeometry y="350" width="130" height="30" as="geometry"/>
                </mxCell>
                <mxCell id="l_bYTn5K-WHywQLocLNn-325" value="+ ~PaymentRecord()" style="text;html=1;align=center;verticalAlign=middle;resizable=0;points=[];autosize=1;strokeColor=none;fillColor=none;" parent="l_bYTn5K-WHywQLocLNn-304" vertex="1">
                    <mxGeometry x="5" y="370" width="130" height="30" as="geometry"/>
                </mxCell>
                <mxCell id="l_bYTn5K-WHywQLocLNn-326" value="+ recordPayment( string, string, int, double, time_t, time_t, bool, string ) : void" style="text;html=1;align=center;verticalAlign=middle;resizable=0;points=[];autosize=1;strokeColor=none;fillColor=none;" parent="l_bYTn5K-WHywQLocLNn-304" vertex="1">
                    <mxGeometry y="390" width="430" height="30" as="geometry"/>
                </mxCell>
                <mxCell id="l_bYTn5K-WHywQLocLNn-327" value="+ updatePaymentRecord( string, string, int, double, time_t ) : void" style="text;html=1;align=center;verticalAlign=middle;resizable=0;points=[];autosize=1;strokeColor=none;fillColor=none;" parent="l_bYTn5K-WHywQLocLNn-304" vertex="1">
                    <mxGeometry y="410" width="370" height="30" as="geometry"/>
                </mxCell>
                <mxCell id="l_bYTn5K-WHywQLocLNn-328" value="+ displayPayments() : void" style="text;html=1;align=center;verticalAlign=middle;resizable=0;points=[];autosize=1;strokeColor=none;fillColor=none;" parent="l_bYTn5K-WHywQLocLNn-304" vertex="1">
                    <mxGeometry x="5" y="430" width="160" height="30" as="geometry"/>
                </mxCell>
                <mxCell id="l_bYTn5K-WHywQLocLNn-329" value="+ deleteAllRecords() : void" style="text;html=1;align=center;verticalAlign=middle;resizable=0;points=[];autosize=1;strokeColor=none;fillColor=none;" parent="l_bYTn5K-WHywQLocLNn-304" vertex="1">
                    <mxGeometry x="5" y="450" width="160" height="30" as="geometry"/>
                </mxCell>
                <mxCell id="l_bYTn5K-WHywQLocLNn-330" value="+ deleteSpecificRecord( string, string ) : void" style="text;html=1;align=center;verticalAlign=middle;resizable=0;points=[];autosize=1;strokeColor=none;fillColor=none;" parent="l_bYTn5K-WHywQLocLNn-304" vertex="1">
                    <mxGeometry y="470" width="260" height="30" as="geometry"/>
                </mxCell>
                <mxCell id="l_bYTn5K-WHywQLocLNn-331" value="+ withdrawPayment( string ) : void" style="text;html=1;align=center;verticalAlign=middle;resizable=0;points=[];autosize=1;strokeColor=none;fillColor=none;" parent="l_bYTn5K-WHywQLocLNn-304" vertex="1">
                    <mxGeometry y="490" width="200" height="30" as="geometry"/>
                </mxCell>
                <mxCell id="l_bYTn5K-WHywQLocLNn-323" value="" style="endArrow=none;html=1;rounded=0;" parent="1" edge="1">
                    <mxGeometry width="50" height="50" relative="1" as="geometry">
                        <mxPoint x="-400" y="2240" as="sourcePoint"/>
                        <mxPoint x="60" y="2240" as="targetPoint"/>
                    </mxGeometry>
                </mxCell>
                <mxCell id="l_bYTn5K-WHywQLocLNn-333" value="" style="endArrow=none;html=1;rounded=0;entryX=0;entryY=0.5;entryDx=0;entryDy=0;exitX=0.607;exitY=-0.005;exitDx=0;exitDy=0;exitPerimeter=0;" parent="1" source="l_bYTn5K-WHywQLocLNn-304" target="l_bYTn5K-WHywQLocLNn-332" edge="1">
                    <mxGeometry width="50" height="50" relative="1" as="geometry">
                        <mxPoint x="-120" y="1860" as="sourcePoint"/>
                        <mxPoint x="250" y="1640" as="targetPoint"/>
                        <Array as="points">
                            <mxPoint x="-120" y="1765"/>
                        </Array>
                    </mxGeometry>
                </mxCell>
            </root>
        </mxGraphModel>
    </diagram>
</mxfile>